<svg width="177" height="177" viewBox="0 0 177 177" fill="none" xmlns="http://www.w3.org/2000/svg">
<circle cx="88.5" cy="88.5" r="88.5" fill="#E2E7FC"/>
<path d="M55.7678 100.994C58.2058 102.371 60.6724 103.619 63.1677 104.737C65.6917 105.827 68.3018 106.76 70.9979 107.534C73.6939 108.28 76.5191 108.853 79.4733 109.255C82.4562 109.656 85.6256 109.857 88.9813 109.857C93.0255 109.857 96.4673 109.599 99.3068 109.083C102.146 108.538 104.455 107.806 106.233 106.889C108.04 105.942 109.345 104.823 110.148 103.533C110.98 102.242 111.396 100.837 111.396 99.3166C111.396 96.8786 110.378 94.957 108.342 93.5516C106.305 92.1175 103.164 91.4004 98.9196 91.4004C97.0552 91.4004 95.0905 91.5295 93.0255 91.7876C90.9604 92.0171 88.8666 92.2752 86.7441 92.562C84.6504 92.8489 82.571 93.1213 80.5059 93.3795C78.4695 93.6089 76.5478 93.7236 74.7408 93.7236C71.7292 93.7236 68.8324 93.3364 66.0503 92.562C63.2968 91.7876 60.8445 90.626 58.6934 89.0772C56.5709 87.5284 54.8787 85.5924 53.6167 83.2691C52.3547 80.9459 51.7237 78.2355 51.7237 75.1379C51.7237 73.3022 51.9675 71.4809 52.4551 69.674C52.9714 67.867 53.7745 66.1461 54.8644 64.5113C55.983 62.8477 57.4171 61.3133 59.1666 59.9079C60.9162 58.4738 63.0243 57.2405 65.491 56.2079C67.9863 55.1754 70.8545 54.3723 74.0955 53.7986C77.3652 53.1963 81.0795 52.8952 85.2384 52.8952C88.2499 52.8952 91.2759 53.0673 94.3161 53.4114C97.3564 53.7269 100.311 54.1858 103.179 54.7882C106.076 55.3905 108.858 56.1219 111.525 56.9823C114.193 57.8141 116.674 58.7462 118.968 59.7788L112.988 70.7926C111.095 69.9608 109.059 69.2007 106.879 68.5124C104.699 67.7953 102.419 67.1787 100.038 66.6624C97.6576 66.1461 95.1909 65.7446 92.6382 65.4578C90.1143 65.1423 87.5329 64.9845 84.8942 64.9845C81.1369 64.9845 78.0392 65.257 75.6013 65.802C73.192 66.3469 71.2703 67.0496 69.8363 67.9101C68.4022 68.7418 67.3983 69.6883 66.8247 70.7496C66.2797 71.7821 66.0072 72.8146 66.0072 73.8472C66.0072 75.8549 66.9107 77.5041 68.7177 78.7948C70.5246 80.0568 73.2781 80.6878 76.978 80.6878C78.4695 80.6878 80.176 80.5874 82.0977 80.3866C84.0481 80.1572 86.0845 79.9134 88.2069 79.6552C90.358 79.3971 92.5379 79.1677 94.7464 78.9669C96.9835 78.7374 99.149 78.6227 101.243 78.6227C105.201 78.6227 108.7 79.0673 111.74 79.9564C114.809 80.8455 117.376 82.1219 119.441 83.7854C121.506 85.4203 123.07 87.4137 124.131 89.7656C125.192 92.0888 125.723 94.6988 125.723 97.5957C125.723 101.468 124.819 104.924 123.012 107.964C121.234 110.976 118.681 113.528 115.354 115.622C112.056 117.687 108.069 119.265 103.394 120.355C98.7188 121.416 93.513 121.946 87.7767 121.946C83.9907 121.946 80.2908 121.703 76.6769 121.215C73.0629 120.756 69.5925 120.097 66.2654 119.236C62.967 118.347 59.812 117.3 56.8004 116.095C53.8175 114.862 51.0497 113.514 48.497 112.051L55.7678 100.994Z" fill="#0A2CA5"/>
<path d="M33 76.9154C36.5 49.5 47 41.5 72.5 37.5" stroke="#0A2CA5" stroke-width="12"/>
<path d="M142.973 102C136.473 128 119.5 135 101.973 136.5" stroke="#0A2CA5" stroke-width="12"/>
</svg>
